<svg width="271.28740844726565px" height="121.60000610351562px" xmlns="http://www.w3.org/2000/svg" viewBox="114.35629577636718 14.199996948242188 271.28740844726565 121.60000610351562" style="background: rgba(0, 0, 0, 0);" preserveAspectRatio="xMidYMid"><defs><filter id="editing-extrusion" x="-100%" y="-100%" width="300%" height="300%"><feFlood result="color1" flood-color="#444"></feFlood><feConvolveMatrix order="8,8" divisor="1" kernelMatrix="1 0 0 0 0 0 0 0 0 1 0 0 0 0 0 0 0 0 1 0 0 0 0 0 0 0 0 1 0 0 0 0 0 0 0 0 1 0 0 0 0 0 0 0 0 1 0 0 0 0 0 0 0 0 1 0 0 0 0 0 0 0 0 1" in="SourceAlpha" result="extrude"></feConvolveMatrix><feComposite in="color1" in2="extrude" result="comp-extrude" operator="in"></feComposite><feOffset dx="4" dy="4" in="comp-extrude" result="offset-extrude"></feOffset><feMerge><feMergeNode in="offset-extrude"></feMergeNode><feMergeNode in="SourceGraphic"></feMergeNode></feMerge></filter></defs><g filter="url(#editing-extrusion)"><g transform="translate(158.28998017311096, 102.83999633789062)"><path d="M42.62-26.56L42.62-26.56L42.62-26.56Q42.62 0.70 13.06 0.70L13.06 0.70L13.06 0.70Q8.32 0.70 0.51-0.45L0.51-0.45L7.68-38.27L7.68-38.27Q8.19-40.83 8.51-42.30L8.51-42.30L8.51-42.30Q18.24-43.01 22.56-43.01L22.56-43.01L22.56-43.01Q26.88-43.01 30.85-42.11L30.85-42.11L30.85-42.11Q34.82-41.22 37.44-39.23L37.44-39.23L37.44-39.23Q42.62-35.33 42.62-26.56ZM29.44-28.93L29.44-28.93L29.44-28.93Q29.44-38.46 22.59-38.46L22.59-38.46L21.95-38.46L21.95-38.46Q21.63-38.46 21.31-38.40L21.31-38.40L14.72-4.03L14.72-4.03Q14.98-3.90 15.23-3.90L15.23-3.90L15.74-3.90L15.74-3.90Q18.11-3.90 20.58-5.38L20.58-5.38L20.58-5.38Q23.04-6.85 24.96-9.86L24.96-9.86L24.96-9.86Q29.44-16.83 29.44-28.93ZM73.22-9.86L73.22-9.86L73.22-9.86Q74.43-8.32 74.43-5.82L74.43-5.82L74.43-5.82Q74.43-2.37 71.87-0.54L71.87-0.54L71.87-0.54Q69.31 1.28 65.28 1.28L65.28 1.28L65.28 1.28Q62.98 1.28 59.46 0.77L59.46 0.77L59.46 0.77Q52.54-0.32 50.43-0.32L50.43-0.32L50.43-0.32Q48.32-0.32 47.49-0.22L47.49-0.22L47.49-0.22Q46.66-0.13 45.31 0L45.31 0L53.18-42.24L80.77-42.24L80.77-42.24Q80.77-38.34 78.88-36.29L78.88-36.29L78.88-36.29Q76.99-34.24 73.28-34.24L73.28-34.24L73.28-34.24Q69.57-34.24 65.79-35.97L65.79-35.97L63.81-24.77L75.20-24.77L75.20-24.77Q75.20-21.38 73.54-19.49L73.54-19.49L73.54-19.49Q71.87-17.60 69.09-17.60L69.09-17.60L69.09-17.60Q66.30-17.60 64.58-18.24L64.58-18.24L64.58-18.24Q62.85-18.88 62.66-19.07L62.66-19.07L60.35-6.98L60.35-6.98Q61.89-6.78 64.77-6.78L64.77-6.78L64.77-6.78Q69.70-6.78 73.22-9.86ZM81.92-39.68L81.92-39.68L81.92-39.68Q83.78-43.52 88.93-43.52L88.93-43.52L88.93-43.52Q94.08-43.52 96.48-40.54L96.48-40.54L96.48-40.54Q98.88-37.57 98.88-30.72L98.88-30.72L98.88-7.87L114.43-42.18L122.05-42.18L102.14 0L87.17 0L85.25-30.72L85.25-30.72Q85.06-34.11 84.13-36.42L84.13-36.42L84.13-36.42Q83.20-38.72 81.92-39.68ZM111.42 8.83L111.42 8.83L111.42 8.83Q114.69 8.45 116.74 4.22L116.74 4.22L116.74 4.22Q118.85-0.06 120.77-9.92L120.77-9.92L126.98-42.24L140.86-42.24L134.66-9.92L134.66-9.92Q132.29 2.62 128.38 7.55L128.38 7.55L128.38 7.55Q126.34 10.11 123.74 11.14L123.74 11.14L123.74 11.14Q121.15 12.16 118.34 12.16L118.34 12.16L118.34 12.16Q115.52 12.16 113.70 11.14L113.70 11.14L113.70 11.14Q111.87 10.11 111.42 8.83ZM155.39 0L141.70 0L149.50-42.05L149.50-42.05Q155.84-42.75 165.09-42.75L165.09-42.75L165.09-42.75Q174.34-42.75 178.62-40.06L178.62-40.06L178.62-40.06Q182.91-37.38 182.91-31.97L182.91-31.97L182.91-31.97Q182.91-26.56 180.13-23.17L180.13-23.17L180.13-23.17Q177.34-19.78 172.54-18.69L172.54-18.69L172.54-18.69Q173.63-13.38 176.13-9.09L176.13-9.09L176.13-9.09Q178.43-5.06 181.12-3.78L181.12-3.78L181.12-3.78Q180.16-1.09 178.21 0.10L178.21 0.10L178.21 0.10Q176.26 1.28 173.47 1.28L173.47 1.28L173.47 1.28Q170.69 1.28 168.51-0.35L168.51-0.35L168.51-0.35Q166.34-1.98 164.61-4.99L164.61-4.99L164.61-4.99Q160.96-11.52 160.58-21.82L160.58-21.82L161.02-21.82L161.02-21.82Q165.76-21.95 168.13-24.42L168.13-24.42L168.13-24.42Q170.50-26.88 170.50-32.06L170.50-32.06L170.50-32.06Q170.50-38.53 165.06-38.78L165.06-38.78L163.65-38.78L163.65-38.78Q163.07-38.78 162.75-38.72L162.75-38.72L155.39 0Z" fill="#ccc"></path></g></g><style>text {
  font-size: 64px;
  font-family: Arial Black;
  dominant-baseline: central;
  text-anchor: middle;
}</style></svg>